<?xml version="1.0" encoding="utf-8"?>
<!-- Generator: Adobe Illustrator 16.0.0, SVG Export Plug-In . SVG Version: 6.00 Build 0)  -->
<!DOCTYPE svg PUBLIC "-//W3C//DTD SVG 1.1//EN" "http://www.w3.org/Graphics/SVG/1.1/DTD/svg11.dtd">
<svg version="1.1" id="Layer_1" xmlns="http://www.w3.org/2000/svg" xmlns:xlink="http://www.w3.org/1999/xlink" x="0px" y="0px"
	 width="24px" height="21.881px" viewBox="0 0 24 21.881" enable-background="new 0 0 24 21.881" xml:space="preserve">
<g>
	<g>
		<defs>
			<rect id="SVGID_21_" x="-0.027" width="24.056" height="21.881"/>
		</defs>
		<clipPath id="SVGID_2_">
			<use xlink:href="#SVGID_21_"  overflow="visible"/>
		</clipPath>
		<rect x="-0.027" clip-path="url(#SVGID_2_)" fill="#404040" width="24.056" height="21.881"/>
		<polyline clip-path="url(#SVGID_2_)" fill="#383838" points="4.937,15.857 5.098,13.891 4.856,6.141 10.758,8.022 13.721,7.369 
			19.203,5.906 39.567,30.021 20.124,34.134 4.805,15.975 		"/>
		<g clip-path="url(#SVGID_2_)">
			<polygon fill="none" points="5.285,6.862 9.894,10.821 5.285,15.016 5.285,15.497 10.435,11.28 11.993,12.621 11.993,11.18 
				5.285,6.382 			"/>
			<polygon fill="#FFFFFF" points="10.435,11.28 5.285,15.497 5.285,15.016 9.894,10.821 5.285,6.862 5.285,6.382 11.993,11.18 
				11.993,5.906 4.805,5.906 4.805,15.975 11.993,15.975 11.993,12.621 			"/>
			<polygon fill="#DDDDDC" points="11.993,5.906 11.993,11.18 18.713,6.382 18.713,6.862 14.091,10.821 18.713,15.016 
				18.713,15.497 13.559,11.28 11.993,12.621 11.993,15.975 19.193,15.975 19.193,5.906 			"/>
		</g>
	</g>
</g>
</svg>
