<?xml version="1.0" encoding="utf-8"?>
<!-- Generator: Adobe Illustrator 16.0.0, SVG Export Plug-In . SVG Version: 6.00 Build 0)  -->
<!DOCTYPE svg PUBLIC "-//W3C//DTD SVG 1.1//EN" "http://www.w3.org/Graphics/SVG/1.1/DTD/svg11.dtd">
<svg version="1.1" id="Layer_1" xmlns="http://www.w3.org/2000/svg" xmlns:xlink="http://www.w3.org/1999/xlink" x="0px" y="0px"
	 width="24.997px" height="25px" viewBox="0 0 24.997 25" enable-background="new 0 0 24.997 25" xml:space="preserve">
<g>
	<g>
		<defs>
			<rect id="SVGID_21_" x="-3.795" y="-2.321" width="32.587" height="29.642"/>
		</defs>
		<clipPath id="SVGID_2_">
			<use xlink:href="#SVGID_21_"  overflow="visible"/>
		</clipPath>
		<rect x="-3.795" y="-2.321" clip-path="url(#SVGID_2_)" fill="#404040" width="32.587" height="29.642"/>
		<polyline clip-path="url(#SVGID_2_)" fill="#383838" points="4.428,18.117 4.612,15.871 4.336,7.016 11.079,9.165 14.464,8.418 
			20.728,6.748 43.995,34.299 21.78,38.998 4.277,18.252 		"/>
		<g clip-path="url(#SVGID_2_)">
			<polygon fill="none" points="4.826,7.84 10.091,12.363 4.826,17.156 4.826,17.705 10.709,12.887 12.49,14.42 12.49,12.773 
				4.826,7.291 			"/>
			<polygon fill="#FFFFFF" points="10.709,12.887 4.826,17.705 4.826,17.156 10.091,12.363 4.826,7.84 4.826,7.291 12.49,12.773 
				12.49,6.748 4.277,6.748 4.277,18.252 12.49,18.252 12.49,14.42 			"/>
			<polygon fill="#DDDDDC" points="12.49,6.748 12.49,12.773 20.167,7.291 20.167,7.84 14.887,12.363 20.167,17.156 20.167,17.705 
				14.279,12.887 12.49,14.42 12.49,18.252 20.716,18.252 20.716,6.748 			"/>
		</g>
	</g>
</g>
</svg>
