<?xml version="1.0" encoding="utf-8"?>
<!-- Generator: Adobe Illustrator 16.0.0, SVG Export Plug-In . SVG Version: 6.00 Build 0)  -->
<!DOCTYPE svg PUBLIC "-//W3C//DTD SVG 1.1//EN" "http://www.w3.org/Graphics/SVG/1.1/DTD/svg11.dtd">
<svg version="1.1" id="Layer_1" xmlns="http://www.w3.org/2000/svg" xmlns:xlink="http://www.w3.org/1999/xlink" x="0px" y="0px"
	 width="630.042px" height="94.546px" viewBox="0 0 630.042 94.546" enable-background="new 0 0 630.042 94.546"
	 xml:space="preserve">
<g>
	<path d="M121.409,0H102.76v92.863h65.711V75.496c0,0-41.784,0-47.062,0C121.409,69.943,121.409,0,121.409,0z"/>
	<g>
		<polygon points="177.139,31.034 177.139,41.999 177.139,92.948 194.701,92.948 194.701,41.999 194.701,31.034 194.701,25.021 
			177.139,25.021 		"/>
		<polygon points="177.139,1.571 177.139,4.608 177.139,17.864 194.701,17.864 194.701,4.608 194.701,1.571 194.701,0 177.139,0 		
			"/>
		<path d="M249.767,50.535c-3.691-1.439-9.255-3.125-16.548-5.01c-7.648-1.984-10.832-3.264-12.188-3.98
			c-0.87-0.459-1.668-1.163-1.668-3.158c0-1.789,0.765-2.971,2.547-3.959c2.266-1.247,5.39-1.885,9.272-1.885
			c3.797,0,6.704,0.743,8.688,2.209c1.855,1.391,2.963,3.496,3.366,6.415l0.396,2.957l17.264-2.354l-0.426-2.968
			c-1.02-7.153-4.177-12.662-9.372-16.351c-5.022-3.544-12.01-5.345-20.75-5.345c-8.357,0-15.156,2.103-20.232,6.217
			c-5.262,4.261-7.927,9.792-7.927,16.412c0,5.358,1.843,10.042,5.485,13.893c3.547,3.764,10.316,6.811,20.697,9.289
			c6.421,1.561,10.565,2.657,12.325,3.255c1.443,0.486,2.591,1.144,3.511,2.068c0.427,0.437,1.002,1.2,1.002,2.852
			c0,2.138-0.933,3.843-2.931,5.412c-2.148,1.695-5.456,2.551-9.795,2.551c-4.58,0-8.091-0.96-10.469-2.898
			c-2.343-1.85-3.722-4.718-4.23-8.719l-0.372-3.028l-17.507,2.638l0.457,2.937c1.229,8.125,4.645,14.32,10.132,18.474
			c5.367,4.039,12.824,6.089,22.107,6.089c9.007,0,16.36-2.335,21.876-6.943c5.667-4.73,8.541-10.674,8.541-17.66
			c0-5.222-1.223-9.427-3.624-12.508C257.064,54.471,253.833,52.15,249.767,50.535z"/>
		<path d="M343.994,17.104c-8.37,0-15.257,3.188-20.591,9.381c-1.569-2.421-3.534-4.446-5.962-5.931
			c-3.694-2.292-8.38-3.45-13.939-3.45c-7.09,0-12.983,2.148-17.694,6.291c0-0.533,0-4.742,0-4.742h-16.388v74.295h17.552V54.471
			c0-10.684,2.184-15.27,3.992-17.215c2.635-2.817,5.936-4.205,10.088-4.205c2.992,0,5.172,0.768,6.693,2.366
			c1.05,1.104,2.298,3.752,2.298,10.109v47.422h17.539V50.296c0-6.245,1.358-10.726,4.051-13.298
			c2.754-2.667,5.94-3.948,9.708-3.948c2.961,0,5.078,0.594,6.278,1.757c1.331,1.334,2.146,2.778,2.466,4.434
			c0.391,2.053,0.591,4.601,0.591,7.582v46.125h17.549V43.021c0-8.378-2.045-14.863-6.113-19.225
			C358.012,19.358,351.907,17.104,343.994,17.104z"/>
		<path d="M440.152,80.126c-0.354-3.109-0.523-9.416-0.523-18.754V45.784c0-5.631-0.467-10.351-1.41-14.003
			c-1.074-4.177-3.893-7.738-8.373-10.577c-4.369-2.756-10.82-4.099-19.66-4.099c-9.577,0-17.298,1.952-22.931,5.801
			c-5.803,3.971-9.472,9.938-10.848,17.728l-0.542,3.07l17.16,2.23l0.573-2.689c0.895-4.19,2.439-7.007,4.635-8.392
			c2.408-1.533,5.847-2.31,10.21-2.31c3.51,0,6.269,0.397,8.22,1.203c1.758,0.715,2.995,1.604,3.711,2.646
			c0.795,1.161,1.259,2.247,1.4,3.23c0.123,0.716,0.238,2.13,0.295,4.787c-2.109,0.598-4.602,1.141-7.467,1.582l-10.776,1.603
			c-10.575,1.293-17.923,3.912-22.472,8.065c-4.646,4.238-6.989,9.696-6.989,16.214c0,6.801,2.454,12.376,7.28,16.541
			c4.688,4.083,11.096,6.133,19.008,6.133c8.2,0,15.99-2.615,23.224-7.728c0.443,1.683,0.996,3.205,1.691,4.513l0.844,1.617h19.115
			l-2.547-4.468C441.436,85.756,440.477,82.951,440.152,80.126z M416.684,74.964c-3.847,3.002-8.186,4.479-13.25,4.479
			c-3.682,0-6.438-0.782-8.238-2.331c-1.711-1.475-2.501-3.232-2.501-5.514c0-1.838,0-6.708,10.55-8.14
			c7.139-0.956,13.42-2.226,18.84-3.746v0.162C422.084,67.087,420.262,72.15,416.684,74.964z"/>
		<path d="M492.869,21.214c-4.438-2.722-8.967-4.11-13.465-4.11c-4.479,0-8.414,1.789-11.766,5.295c0-0.111,0-3.747,0-3.747h-16.52
			v74.295h17.577V54.093c0-6.431,0.959-11.425,2.922-14.84c1.707-2.947,4.012-4.339,7.279-4.339c2.195,0,4.521,0.726,6.934,2.118
			l3.057,1.778l6.076-16.303L492.869,21.214z"/>
		<path d="M540.24,61.603l-0.369,2.941c-0.65,5.009-2.162,8.737-4.523,11.103c-2.289,2.288-5.459,3.406-9.648,3.406
			c-5.213,0-9.066-1.834-11.768-5.609c-2.908-4.03-4.369-9.997-4.369-17.747c0-7.56,1.482-13.448,4.447-17.484
			c2.777-3.82,6.809-5.671,12.332-5.671c3.307,0,5.922,0.89,7.967,2.729c2.121,1.889,3.707,4.87,4.73,8.851l0.67,2.64l16.857-2.605
			l-0.492-2.981c-1.281-7.834-4.791-13.906-10.434-18.021c-5.502-4.009-12.176-6.049-19.816-6.049
			c-5.556,0-10.947,1.189-16.001,3.534c-5.217,2.421-9.603,6.619-13.006,12.475c-3.357,5.792-5.064,13.464-5.064,22.846
			c0,11.4,2.953,20.739,8.794,27.755c5.992,7.197,14.482,10.832,25.278,10.832c7.408,0,14.139-2.248,20.031-6.682
			c5.969-4.505,9.813-11.585,11.426-21.034l0.545-3.082L540.24,61.603z"/>
		<path d="M627.507,88.479c-1.551-2.724-2.496-5.528-2.822-8.354c-0.346-3.109-0.518-9.416-0.518-18.754V45.784
			c0-5.621-0.471-10.351-1.416-14.003c-1.072-4.177-3.879-7.738-8.383-10.577c-4.357-2.756-10.777-4.099-19.642-4.099
			c-9.578,0-17.303,1.952-22.936,5.801c-5.822,3.971-9.461,9.938-10.855,17.728l-0.555,3.07l17.164,2.23l0.58-2.689
			c0.9-4.19,2.453-7.007,4.646-8.392c2.396-1.533,5.832-2.31,10.205-2.31c3.508,0,6.275,0.397,8.224,1.203
			c1.748,0.715,2.99,1.604,3.709,2.646c0.795,1.161,1.26,2.247,1.41,3.23c0.1,0.716,0.24,2.13,0.258,4.787
			c-2.072,0.598-4.576,1.141-7.438,1.582l-10.779,1.603c-10.57,1.293-17.959,3.912-22.469,8.065
			c-4.639,4.227-6.994,9.696-6.994,16.214c0,6.801,2.459,12.376,7.27,16.541c4.699,4.083,11.088,6.133,19.02,6.133
			c8.213,0,15.992-2.615,23.195-7.728c0.475,1.683,1.025,3.205,1.723,4.513l0.824,1.617h19.113L627.507,88.479z M601.237,74.964
			c-3.869,3.002-8.205,4.479-13.281,4.479c-3.67,0-6.43-0.782-8.229-2.331c-1.709-1.475-2.502-3.232-2.502-5.514
			c0-1.838,0-6.708,10.559-8.14c7.123-0.956,13.416-2.226,18.83-3.746v0.162C606.614,67.077,604.804,72.15,601.237,74.964z"/>
	</g>
	<rect fill="#E11B22" width="92.854" height="92.863"/>
</g>
</svg>
