<?xml version="1.0" encoding="utf-8"?>
<!-- Generator: Adobe Illustrator 16.0.0, SVG Export Plug-In . SVG Version: 6.00 Build 0)  -->
<!DOCTYPE svg PUBLIC "-//W3C//DTD SVG 1.1//EN" "http://www.w3.org/Graphics/SVG/1.1/DTD/svg11.dtd">
<svg version="1.1" id="Layer_1" xmlns="http://www.w3.org/2000/svg" xmlns:xlink="http://www.w3.org/1999/xlink" x="0px" y="0px"
	 width="14.601px" height="14.6px" viewBox="0 0 14.601 14.6" enable-background="new 0 0 14.601 14.6" xml:space="preserve">
<g>
	<rect x="0.023" y="0.02" fill="#404040" width="14.553" height="14.562"/>
	<rect x="0.023" y="0.02" fill="none" width="14.553" height="14.562"/>
	<g>
		<defs>
			<rect id="SVGID_19_" x="0.023" y="0.02" width="14.553" height="14.562"/>
		</defs>
		<clipPath id="SVGID_2_">
			<use xlink:href="#SVGID_19_"  overflow="visible"/>
		</clipPath>
		<polyline clip-path="url(#SVGID_2_)" fill="#383838" points="3.557,10.137 3.141,6.01 4.09,3.502 6.01,3.894 7.553,3.661 
			10.184,3.561 17.252,12.113 9.389,18.108 4.098,10.679 		"/>
	</g>
	<g>
		<g>
			<path fill="#E5E5E5" d="M11.035,10.137l-0.541,0.542c-1.764-1.763-4.635-1.763-6.396,0l-0.541-0.542
				C5.619,8.077,8.975,8.077,11.035,10.137z"/>
		</g>
		<path fill="#FFFFFF" d="M9.469,2.975C8.768,2.918,8.061,2.886,7.359,2.871l0,0c-0.021,0-0.039,0-0.039,0c-0.041,0-0.055,0-0.078,0
			l0,0C6.537,2.886,5.836,2.918,5.133,2.977C3.293,3.122,2.07,4.568,2.389,5.988C2.4,6.047,2.404,6.113,2.424,6.169
			c0.141,0.347,0.41,0.633,0.609,0.954C3.287,7.528,5.449,6.652,5.17,6.108C5.064,5.911,4.654,5.354,4.627,5.133
			c-0.031-0.196,0.23-0.355,0.477-0.375c0.641-0.049,1.459-0.007,2.139,0l0,0c0.023,0,0.037,0,0.059,0c0,0,0.037,0,0.059,0l0,0
			c0.678-0.007,1.498-0.049,2.141,0c0.24,0.02,0.506,0.172,0.479,0.375C9.947,5.354,9.537,5.902,9.43,6.108
			c-0.277,0.544,1.887,1.418,2.137,1.015c0.201-0.326,0.467-0.607,0.611-0.954c0.023-0.056,0.023-0.122,0.033-0.181
			C12.529,4.568,11.311,3.122,9.469,2.975z"/>
	</g>
</g>
</svg>
