<?xml version="1.0" encoding="utf-8"?>
<!-- Generator: Adobe Illustrator 16.0.0, SVG Export Plug-In . SVG Version: 6.00 Build 0)  -->
<!DOCTYPE svg PUBLIC "-//W3C//DTD SVG 1.1//EN" "http://www.w3.org/Graphics/SVG/1.1/DTD/svg11.dtd">
<svg version="1.1" id="Layer_1" xmlns="http://www.w3.org/2000/svg" xmlns:xlink="http://www.w3.org/1999/xlink" x="0px" y="0px"
	 width="119.055px" height="119.055px" viewBox="0 0 119.055 119.055" enable-background="new 0 0 119.055 119.055"
	 xml:space="preserve">
<g>
	<rect fill="#6D6E71" width="119.055" height="119.055"/>
	<path fill="#FFFFFF" d="M105.59,96.155L88.308,78.877c3.897-5.727,6.18-12.635,6.18-20.066c0-19.73-16.074-35.785-35.799-35.785
		c-19.733,0-35.78,16.055-35.78,35.785c0,19.728,16.047,35.785,35.78,35.785c8.321,0,15.985-2.865,22.075-7.65L97.78,103.97
		c1.086,1.071,2.485,1.612,3.909,1.612c1.415,0,2.834-0.541,3.9-1.612C107.748,101.813,107.748,98.312,105.59,96.155z
		 M80.284,70.855c-0.917,1.636-2.024,3.146-3.275,4.527c-1.239,1.369-2.62,2.605-4.136,3.67c-4.021,2.825-8.907,4.499-14.185,4.499
		c-13.643,0-24.739-11.098-24.739-24.74c0-13.647,11.097-24.746,24.739-24.746c13.646,0,24.744,11.098,24.744,24.746
		C83.433,63.183,82.282,67.287,80.284,70.855z"/>
</g>
</svg>
