<?xml version="1.0" encoding="utf-8"?>
<!-- Generator: Adobe Illustrator 16.0.0, SVG Export Plug-In . SVG Version: 6.00 Build 0)  -->
<!DOCTYPE svg PUBLIC "-//W3C//DTD SVG 1.1//EN" "http://www.w3.org/Graphics/SVG/1.1/DTD/svg11.dtd">
<svg version="1.1" id="Layer_1" xmlns="http://www.w3.org/2000/svg" xmlns:xlink="http://www.w3.org/1999/xlink" x="0px" y="0px"
	 width="24.997px" height="25px" viewBox="0 0 24.997 25" enable-background="new 0 0 24.997 25" xml:space="preserve">
<rect x="-2.477" y="-1.121" fill="#383838" width="29.951" height="27.242"/>
<polyline fill="#303030" points="5.912,13.042 6.39,15.137 5.084,8.292 10.59,4.358 14.349,6.417 16.718,6.66 34.224,27.637 
	15.849,28.167 5.52,15.853 "/>
<path fill="#FFFFFF" d="M20.698,18.944l-3.497-3.496c0.789-1.159,1.25-2.556,1.25-4.059c0-3.991-3.252-7.239-7.242-7.239
	c-3.992,0-7.238,3.248-7.238,7.239s3.246,7.239,7.238,7.239c1.683,0,3.231-0.583,4.463-1.551l3.445,3.447
	c0.22,0.217,0.503,0.326,0.791,0.326c0.286,0,0.573-0.109,0.789-0.326C21.134,20.089,21.134,19.381,20.698,18.944z M14.076,15.481
	c-0.813,0.571-1.799,0.913-2.866,0.913c-2.76,0-5.005-2.245-5.005-5.005c0-2.761,2.245-5.006,5.005-5.006
	c2.761,0,5.006,2.245,5.006,5.006c0,0.883-0.25,1.701-0.652,2.421c-0.186,0.333-0.402,0.642-0.656,0.922
	C14.656,15.011,14.383,15.266,14.076,15.481z"/>
</svg>
