<?xml version="1.0" encoding="utf-8"?>
<!-- Generator: Adobe Illustrator 16.0.0, SVG Export Plug-In . SVG Version: 6.00 Build 0)  -->
<!DOCTYPE svg PUBLIC "-//W3C//DTD SVG 1.1//EN" "http://www.w3.org/Graphics/SVG/1.1/DTD/svg11.dtd">
<svg version="1.1" id="Layer_1" xmlns="http://www.w3.org/2000/svg" xmlns:xlink="http://www.w3.org/1999/xlink" x="0px" y="0px"
	 width="25.001px" height="25px" viewBox="0 0 25.001 25" enable-background="new 0 0 25.001 25" xml:space="preserve">
<g>
	<defs>
		<rect id="SVGID_7_" x="-33.334" y="-0.833" width="26.668" height="26.667"/>
	</defs>
	<clipPath id="SVGID_2_">
		<use xlink:href="#SVGID_7_"  overflow="visible"/>
	</clipPath>
	<g clip-path="url(#SVGID_2_)">
		<g>
			<polyline fill="#0375AD" points="-13.448,10.492 7.104,30.854 -17.207,28.336 -26.908,19.634 -25.08,15.366 -25.386,12.103 
				-25.386,6.05 -23.909,5.777 -19.033,9.847 -19.488,12.069 -17.304,11.31 -13.448,10.492 			"/>
		</g>
	</g>
</g>
<g>
	<defs>
		<rect id="SVGID_11_" x="-0.833" y="-0.833" width="26.668" height="26.667"/>
	</defs>
	<clipPath id="SVGID_4_">
		<use xlink:href="#SVGID_11_"  overflow="visible"/>
	</clipPath>
	<g clip-path="url(#SVGID_4_)">
		<g>
			<defs>
				<rect id="SVGID_13_" x="-0.833" y="-0.833" width="26.668" height="26.667"/>
			</defs>
			<clipPath id="SVGID_6_">
				<use xlink:href="#SVGID_13_"  overflow="visible"/>
			</clipPath>
			<rect x="-0.833" y="-0.833" clip-path="url(#SVGID_6_)" fill="#CC3732" width="26.668" height="26.667"/>
		</g>
	</g>
	<g clip-path="url(#SVGID_4_)">
		<g>
			<path fill="#BE332D" d="M10.259,5.914L7.736,7.278l0.618,3.679l2.633,1.021v2.191L9.38,14.188l-2.428,1.288l-0.525,3.085
				l8.631,8.347l23.257-0.632L17.765,5.914l-0.315,0.56c0,0-0.019,1.01,0.037,1.158c0.057,0.149,0.635,0.469-0.075,0.469
				c-0.709,0-2.091-0.075-2.091-0.075l-0.394-0.206l-0.335-2.11"/>
		</g>
		<path fill="#FFFFFF" d="M14.592,5.723c0,0-3.037,0-4.11,0c-2.083,0-3.824,1.538-3.824,3.23c0,1.728,1.143,3.106,3.106,3.106
			c0.137,0,0.268-0.009,0.396-0.019c-0.126,0.245-0.218,0.516-0.218,0.802c0,0.479,0.264,0.754,0.589,1.071
			c-0.245,0-0.484,0.006-0.744,0.006c-2.389,0-4.059,1.644-4.059,3.22c0,1.555,2.016,2.523,4.401,2.523
			c2.722,0,4.397-1.543,4.397-3.097c0-1.245-0.271-1.87-1.596-2.865c-0.381-0.286-1.211-0.872-1.211-1.265
			c0-0.462,0.132-0.688,0.825-1.229c0.709-0.556,1.213-1.287,1.213-2.197c0-0.991-0.404-1.887-1.165-2.323h1.08L14.592,5.723z
			 M13.196,16.3c0.037,0.143,0.053,0.291,0.053,0.442c0,1.256-0.808,2.234-3.127,2.234c-1.649,0-2.841-1.043-2.841-2.298
			c0-1.23,1.395-2.291,3.047-2.271c0.387,0.004,0.742,0.065,1.069,0.17C12.294,15.199,13.018,15.591,13.196,16.3z M10.556,11.431
			c-1.108-0.034-2.161-1.05-2.351-2.505C8.012,7.473,8.757,6.36,9.862,6.391c1.109,0.036,2.058,1.229,2.247,2.682
			C12.299,10.526,11.662,11.463,10.556,11.431z"/>
		<polygon fill="#FFFFFF" points="17.765,7.811 17.765,5.914 16.816,5.914 16.816,7.811 14.921,7.811 14.921,8.758 16.816,8.758 
			16.816,10.651 17.765,10.651 17.765,8.758 19.661,8.758 19.661,7.811 		"/>
	</g>
</g>
</svg>
