<?xml version="1.0" encoding="utf-8"?>
<!-- Generator: Adobe Illustrator 16.0.0, SVG Export Plug-In . SVG Version: 6.00 Build 0)  -->
<!DOCTYPE svg PUBLIC "-//W3C//DTD SVG 1.1//EN" "http://www.w3.org/Graphics/SVG/1.1/DTD/svg11.dtd">
<svg version="1.1" id="Layer_1" xmlns="http://www.w3.org/2000/svg" xmlns:xlink="http://www.w3.org/1999/xlink" x="0px" y="0px"
	 width="25px" height="25px" viewBox="0 0 25 25" enable-background="new 0 0 25 25" xml:space="preserve">
<g>
	<defs>
		<rect id="SVGID_3_" x="-0.833" y="-0.833" width="26.667" height="26.667"/>
	</defs>
	<clipPath id="SVGID_2_">
		<use xlink:href="#SVGID_3_"  overflow="visible"/>
	</clipPath>
	<g clip-path="url(#SVGID_2_)">
		<g>
			<g>
				<defs>
					<rect id="SVGID_5_" x="-0.833" y="-0.833" width="26.667" height="26.667"/>
				</defs>
				<use xlink:href="#SVGID_5_"  overflow="visible" fill="#CD332D"/>
				<clipPath id="SVGID_4_">
					<use xlink:href="#SVGID_5_"  overflow="visible"/>
				</clipPath>
			</g>
		</g>
		<g>
			<g>
				<polyline fill="#BB1B21" points="12.395,5.713 10.866,4.138 8.493,10.599 10.017,12.103 5.577,12.933 6.255,20.758 
					12.963,27.256 37.894,26.194 17.341,5.831 				"/>
			</g>
			<g>
				<polygon fill="#FFFFFF" points="8.493,10.599 9.589,10.599 9.589,7.92 10.866,4.138 9.751,4.138 9.072,6.72 9.002,6.72 
					8.29,4.138 7.187,4.138 8.493,8.038 				"/>
				<path fill="#FFFFFF" d="M14.09,15.378c-0.062,0-0.123,0.015-0.185,0.042c-0.062,0.028-0.118,0.073-0.18,0.133v2.698
					c0.073,0.068,0.14,0.121,0.207,0.152c0.066,0.031,0.136,0.047,0.208,0.047c0.107,0,0.186-0.031,0.235-0.092
					c0.049-0.062,0.073-0.16,0.073-0.299v-2.235c0-0.146-0.027-0.258-0.092-0.334C14.296,15.416,14.206,15.378,14.09,15.378z"/>
				<path fill="#FFFFFF" d="M12.349,10.721c0.445,0,0.794-0.116,1.048-0.349c0.249-0.234,0.375-0.551,0.375-0.961V6.949
					c0-0.361-0.128-0.661-0.383-0.892c-0.26-0.23-0.592-0.345-0.994-0.345c-0.441,0-0.795,0.109-1.058,0.327
					c-0.262,0.217-0.394,0.512-0.394,0.881v2.472c0,0.404,0.129,0.728,0.384,0.967C11.584,10.599,11.924,10.721,12.349,10.721z
					 M11.945,6.887c0-0.104,0.038-0.189,0.112-0.252c0.075-0.066,0.171-0.099,0.289-0.099c0.132,0,0.235,0.032,0.313,0.099
					c0.081,0.063,0.117,0.147,0.117,0.252v2.597c0,0.126-0.036,0.229-0.117,0.303c-0.074,0.072-0.18,0.107-0.313,0.107
					c-0.128,0-0.228-0.034-0.297-0.107c-0.066-0.071-0.104-0.171-0.104-0.303V6.887z"/>
				<path fill="#FFFFFF" d="M15.241,10.67c0.183,0,0.37-0.054,0.565-0.154s0.383-0.25,0.56-0.444v0.527h0.975V5.831h-0.975v3.62
					c-0.089,0.104-0.19,0.189-0.3,0.258c-0.11,0.066-0.2,0.1-0.271,0.1c-0.091,0-0.157-0.025-0.197-0.077
					c-0.041-0.051-0.065-0.131-0.065-0.245V5.831h-0.972v3.984c0,0.285,0.056,0.498,0.171,0.638
					C14.849,10.598,15.017,10.67,15.241,10.67z"/>
				<path fill="#FFFFFF" d="M17.073,15.393c-0.14,0-0.235,0.039-0.297,0.121c-0.063,0.075-0.089,0.207-0.089,0.389v0.437h0.763
					v-0.437c0-0.182-0.029-0.313-0.088-0.389C17.303,15.432,17.205,15.393,17.073,15.393z"/>
				<path fill="#FFFFFF" d="M17.925,12.103H7.071c-1.727,0-3.122,1.4-3.122,3.125v2.512c0,1.725,1.396,3.125,3.122,3.125h10.854
					c1.725,0,3.125-1.4,3.125-3.125v-2.512C21.05,13.503,19.649,12.103,17.925,12.103z M9.35,14.059H8.344v5.015H7.366v-5.015H6.359
					v-0.854h2.99V14.059z M12.202,19.073h-0.865v-0.476c-0.16,0.175-0.323,0.31-0.498,0.4c-0.174,0.094-0.34,0.138-0.503,0.138
					c-0.2,0-0.352-0.063-0.453-0.194c-0.099-0.128-0.149-0.318-0.149-0.578v-3.619h0.865v3.319c0,0.104,0.019,0.177,0.05,0.224
					c0.038,0.045,0.1,0.067,0.18,0.067c0.062,0,0.146-0.028,0.241-0.089c0.1-0.063,0.188-0.141,0.268-0.234v-3.287h0.865V19.073z
					 M15.341,18.18c0,0.306-0.067,0.539-0.203,0.704c-0.135,0.165-0.333,0.243-0.587,0.243c-0.171,0-0.321-0.028-0.452-0.094
					c-0.132-0.063-0.258-0.158-0.373-0.292v0.332h-0.872v-5.869h0.872v1.891c0.118-0.13,0.243-0.231,0.373-0.301
					c0.131-0.07,0.265-0.102,0.398-0.102c0.275,0,0.485,0.091,0.627,0.274c0.147,0.186,0.217,0.456,0.217,0.81V18.18z
					 M18.343,17.013h-1.655v0.815c0,0.226,0.026,0.386,0.083,0.476c0.06,0.087,0.155,0.131,0.295,0.131
					c0.144,0,0.243-0.037,0.3-0.112c0.056-0.075,0.085-0.241,0.085-0.494v-0.197h0.893v0.22c0,0.446-0.107,0.779-0.327,1.006
					c-0.217,0.224-0.541,0.333-0.972,0.333c-0.386,0-0.691-0.116-0.916-0.356c-0.22-0.235-0.332-0.563-0.332-0.982v-1.941
					c0-0.375,0.12-0.684,0.367-0.919c0.246-0.236,0.56-0.354,0.948-0.354c0.396,0,0.698,0.11,0.912,0.329
					c0.212,0.22,0.319,0.532,0.319,0.944V17.013z"/>
			</g>
		</g>
	</g>
</g>
</svg>
