<?xml version="1.0" encoding="utf-8"?>
<!-- Generator: Adobe Illustrator 16.0.0, SVG Export Plug-In . SVG Version: 6.00 Build 0)  -->
<!DOCTYPE svg PUBLIC "-//W3C//DTD SVG 1.1//EN" "http://www.w3.org/Graphics/SVG/1.1/DTD/svg11.dtd">
<svg version="1.1" id="Layer_1" xmlns="http://www.w3.org/2000/svg" xmlns:xlink="http://www.w3.org/1999/xlink" x="0px" y="0px"
	 width="24.997px" height="25px" viewBox="0 0 24.997 25" enable-background="new 0 0 24.997 25" xml:space="preserve">
<g>
	<g>
		<defs>
			<rect id="SVGID_19_" x="-0.836" y="-0.833" width="26.669" height="26.667"/>
		</defs>
		<clipPath id="SVGID_2_">
			<use xlink:href="#SVGID_19_"  overflow="visible"/>
		</clipPath>
		<rect x="-0.836" y="-0.833" clip-path="url(#SVGID_2_)" fill="#36609F" width="26.669" height="26.667"/>
		<polyline clip-path="url(#SVGID_2_)" fill="#325995" points="13.583,5.754 10.55,8.375 11.574,11.164 10.984,12.382 
			12.198,17.127 9.294,22.071 16.625,29.17 38.812,24.972 16.338,2.703 		"/>
		<path clip-path="url(#SVGID_2_)" fill="#FFFFFF" d="M16.039,12.382h-2.725c0,4.337,0,9.689,0,9.689h-4.02c0,0,0-5.292,0-9.689
			H7.381V8.963h1.913V6.751c0-1.584,0.752-4.057,4.058-4.057l2.986,0.009v3.318c0,0-1.815,0-2.161,0
			c-0.359,0-0.863,0.181-0.863,0.936v2.006h3.072L16.039,12.382z"/>
	</g>
</g>
</svg>
