<?xml version="1.0" encoding="utf-8"?>
<!-- Generator: Adobe Illustrator 16.0.0, SVG Export Plug-In . SVG Version: 6.00 Build 0)  -->
<!DOCTYPE svg PUBLIC "-//W3C//DTD SVG 1.1//EN" "http://www.w3.org/Graphics/SVG/1.1/DTD/svg11.dtd">
<svg version="1.1" id="Layer_1" xmlns="http://www.w3.org/2000/svg" xmlns:xlink="http://www.w3.org/1999/xlink" x="0px" y="0px"
	 width="21.88px" height="21.88px" viewBox="0 0 21.88 21.88" enable-background="new 0 0 21.88 21.88" xml:space="preserve">
<g>
	<defs>
		<rect id="SVGID_11_" x="-29.75" width="21.882" height="21.881"/>
	</defs>
	<clipPath id="SVGID_2_">
		<use xlink:href="#SVGID_11_"  overflow="visible"/>
	</clipPath>
	<g clip-path="url(#SVGID_2_)">
		<g>
			<path fill="#BE332D" d="M-20.771,5.176l-2.208,1.194l0.541,3.219l2.304,0.894v1.918l-1.406,0.016l-2.125,1.127l-0.46,2.7
				l7.554,7.305l20.355-0.553L-14.201,5.176l-0.276,0.49c0,0-0.017,0.883,0.032,1.014c0.05,0.131,0.556,0.41-0.065,0.41
				s-1.83-0.066-1.83-0.066l-0.345-0.18l-0.293-1.847"/>
		</g>
	</g>
</g>
<g>
	<defs>
		<rect id="SVGID_15_" width="21.879" height="21.881"/>
	</defs>
	<clipPath id="SVGID_4_">
		<use xlink:href="#SVGID_15_"  overflow="visible"/>
	</clipPath>
	<g clip-path="url(#SVGID_4_)">
		<g>
			<defs>
				<rect id="SVGID_17_" width="21.879" height="21.881"/>
			</defs>
			<clipPath id="SVGID_6_">
				<use xlink:href="#SVGID_17_"  overflow="visible"/>
			</clipPath>
			<rect clip-path="url(#SVGID_6_)" fill="#CB2027" width="21.879" height="21.881"/>
		</g>
	</g>
	<g clip-path="url(#SVGID_4_)">
		<path fill="#B91C21" d="M13.198,5.192L9.867,5.281L8.675,5.947L7.843,6.959L6.907,8.104l0.961,3.887l1.353,1.104l-0.807,4.392
			l8.461,8.011c4.568-0.981,9.795-2.776,10.615-7.403L15.099,5.804C15.099,5.804,13.381,5.218,13.198,5.192z"/>
		<path fill="#FFFFFF" d="M12.251,13.856c-0.811,0-1.575-0.437-1.837-0.936c0,0-0.437,1.732-0.527,2.066
			c-0.326,1.182-1.285,2.366-1.357,2.463c-0.054,0.065-0.169,0.044-0.181-0.045c-0.021-0.15-0.265-1.642,0.023-2.857
			c0.146-0.612,0.968-4.099,0.968-4.099S9.099,9.969,9.099,9.259c0-1.116,0.647-1.946,1.453-1.946c0.685,0,1.013,0.512,1.013,1.127
			c0,0.689-0.438,1.718-0.666,2.672c-0.188,0.796,0.401,1.447,1.188,1.447c1.425,0,2.386-1.832,2.386-4
			c0-1.646-1.11-2.882-3.131-2.882c-2.28,0-3.701,1.703-3.701,3.605c0,0.654,0.192,1.117,0.495,1.473
			c0.138,0.164,0.159,0.231,0.107,0.42c-0.035,0.138-0.117,0.471-0.152,0.602c-0.049,0.192-0.206,0.259-0.377,0.189
			c-1.05-0.428-1.54-1.579-1.54-2.873c0-2.136,1.803-4.699,5.377-4.699c2.871,0,4.76,2.079,4.76,4.31
			C16.311,11.653,14.67,13.856,12.251,13.856z"/>
	</g>
</g>
</svg>
