<?xml version="1.0" encoding="utf-8"?>
<!-- Generator: Adobe Illustrator 16.0.0, SVG Export Plug-In . SVG Version: 6.00 Build 0)  -->
<!DOCTYPE svg PUBLIC "-//W3C//DTD SVG 1.1//EN" "http://www.w3.org/Graphics/SVG/1.1/DTD/svg11.dtd">
<svg version="1.1" id="Layer_1" xmlns="http://www.w3.org/2000/svg" xmlns:xlink="http://www.w3.org/1999/xlink" x="0px" y="0px"
	 width="21.88px" height="21.88px" viewBox="0 0 21.88 21.88" enable-background="new 0 0 21.88 21.88" xml:space="preserve">
<g>
	<defs>
		<rect id="SVGID_7_" x="-26.75" width="21.882" height="21.881"/>
	</defs>
	<clipPath id="SVGID_2_">
		<use xlink:href="#SVGID_7_"  overflow="visible"/>
	</clipPath>
	<g clip-path="url(#SVGID_2_)">
		<g>
			<polyline fill="#0375AD" points="-10.074,9.183 7.914,27.004 -13.364,24.8 -21.855,17.184 -20.255,13.449 -20.522,10.592 
				-20.522,5.294 -19.23,5.057 -14.963,8.618 -15.361,10.563 -13.449,9.898 -10.074,9.183 			"/>
		</g>
	</g>
</g>
<g>
	<defs>
		<rect id="SVGID_11_" width="21.882" height="21.881"/>
	</defs>
	<clipPath id="SVGID_4_">
		<use xlink:href="#SVGID_11_"  overflow="visible"/>
	</clipPath>
	<g clip-path="url(#SVGID_4_)">
		<g>
			<defs>
				<rect id="SVGID_13_" width="21.882" height="21.881"/>
			</defs>
			<clipPath id="SVGID_6_">
				<use xlink:href="#SVGID_13_"  overflow="visible"/>
			</clipPath>
			<rect clip-path="url(#SVGID_6_)" fill="#CC3732" width="21.882" height="21.881"/>
		</g>
	</g>
	<g clip-path="url(#SVGID_4_)">
		<g>
			<path fill="#BE332D" d="M8.979,5.176L6.771,6.37l0.541,3.219l2.304,0.894v1.918L8.21,12.418l-2.125,1.127l-0.46,2.7l7.554,7.305
				l20.355-0.553L15.549,5.176l-0.276,0.49c0,0-0.017,0.883,0.032,1.014c0.05,0.131,0.556,0.41-0.065,0.41s-1.83-0.066-1.83-0.066
				l-0.345-0.18l-0.293-1.847"/>
		</g>
		<path fill="#FFFFFF" d="M12.771,5.008c0,0-2.658,0-3.598,0c-1.823,0-3.347,1.347-3.347,2.828c0,1.512,1,2.719,2.719,2.719
			c0.119,0,0.234-0.008,0.347-0.016c-0.11,0.214-0.19,0.451-0.19,0.702c0,0.42,0.23,0.66,0.516,0.938
			c-0.215,0-0.424,0.005-0.651,0.005c-2.091,0-3.553,1.439-3.553,2.818c0,1.36,1.765,2.209,3.853,2.209
			c2.382,0,3.849-1.351,3.849-2.71c0-1.09-0.236-1.637-1.396-2.508c-0.333-0.251-1.06-0.763-1.06-1.107
			c0-0.404,0.115-0.601,0.722-1.076c0.621-0.486,1.062-1.126,1.062-1.923c0-0.867-0.354-1.651-1.02-2.033h0.945L12.771,5.008z
			 M11.55,14.266c0.033,0.125,0.047,0.254,0.047,0.387c0,1.099-0.707,1.956-2.737,1.956c-1.443,0-2.486-0.913-2.486-2.011
			c0-1.077,1.221-2.005,2.667-1.988c0.338,0.003,0.649,0.057,0.936,0.148C10.761,13.303,11.394,13.645,11.55,14.266z M9.239,10.004
			C8.269,9.975,7.348,9.085,7.182,7.812C7.013,6.54,7.664,5.566,8.632,5.593c0.971,0.032,1.801,1.076,1.967,2.347
			C10.765,9.213,10.207,10.032,9.239,10.004z"/>
		<polygon fill="#FFFFFF" points="15.549,6.835 15.549,5.176 14.719,5.176 14.719,6.835 13.06,6.835 13.06,7.665 14.719,7.665 
			14.719,9.322 15.549,9.322 15.549,7.665 17.208,7.665 17.208,6.835 		"/>
	</g>
</g>
</svg>
