<?xml version="1.0" encoding="utf-8"?>
<!-- Generator: Adobe Illustrator 16.0.0, SVG Export Plug-In . SVG Version: 6.00 Build 0)  -->
<!DOCTYPE svg PUBLIC "-//W3C//DTD SVG 1.1//EN" "http://www.w3.org/Graphics/SVG/1.1/DTD/svg11.dtd">
<svg version="1.1" id="Layer_1" xmlns="http://www.w3.org/2000/svg" xmlns:xlink="http://www.w3.org/1999/xlink" x="0px" y="0px"
	 width="21.88px" height="21.88px" viewBox="0 0 21.88 21.88" enable-background="new 0 0 21.88 21.88" xml:space="preserve">
<g>
	<defs>
		<rect id="SVGID_3_" y="0" width="21.881" height="21.881"/>
	</defs>
	<clipPath id="SVGID_2_">
		<use xlink:href="#SVGID_3_"  overflow="visible"/>
	</clipPath>
	<g clip-path="url(#SVGID_2_)">
		<g>
			<g>
				<defs>
					<rect id="SVGID_5_" y="0" width="21.881" height="21.881"/>
				</defs>
				<use xlink:href="#SVGID_5_"  overflow="visible" fill="#CD332D"/>
				<clipPath id="SVGID_4_">
					<use xlink:href="#SVGID_5_"  overflow="visible"/>
				</clipPath>
			</g>
		</g>
		<g>
			<g>
				<polyline fill="#BB1B21" points="10.848,5 9.51,3.621 7.434,9.276 8.768,10.592 4.881,11.318 5.475,18.167 11.346,23.855 
					33.166,22.926 15.178,5.103 				"/>
			</g>
			<g>
				<polygon fill="#FFFFFF" points="7.434,9.276 8.393,9.276 8.393,6.931 9.51,3.621 8.535,3.621 7.939,5.881 7.879,5.881 
					7.256,3.621 6.289,3.621 7.434,7.034 				"/>
				<path fill="#FFFFFF" d="M12.332,13.458c-0.055,0-0.107,0.013-0.162,0.037c-0.053,0.025-0.104,0.063-0.156,0.116v2.361
					c0.063,0.06,0.121,0.106,0.18,0.134c0.059,0.027,0.119,0.041,0.184,0.041c0.094,0,0.162-0.027,0.205-0.081
					s0.064-0.14,0.064-0.261V13.85c0-0.129-0.023-0.226-0.08-0.293C12.512,13.492,12.434,13.458,12.332,13.458z"/>
				<path fill="#FFFFFF" d="M10.809,9.382c0.389,0,0.693-0.102,0.916-0.305c0.219-0.205,0.328-0.482,0.328-0.841V6.082
					c0-0.316-0.111-0.579-0.334-0.781C11.49,5.099,11.199,5,10.848,5c-0.387,0-0.695,0.095-0.926,0.286
					c-0.229,0.19-0.344,0.448-0.344,0.771V8.22c0,0.354,0.113,0.636,0.336,0.846C10.139,9.276,10.436,9.382,10.809,9.382z
					 M10.455,6.026c0-0.091,0.033-0.166,0.098-0.22c0.066-0.058,0.15-0.086,0.254-0.086c0.115,0,0.205,0.028,0.273,0.086
					c0.07,0.055,0.104,0.129,0.104,0.22V8.3c0,0.11-0.033,0.2-0.104,0.265c-0.064,0.063-0.156,0.094-0.273,0.094
					c-0.113,0-0.199-0.029-0.26-0.094c-0.059-0.062-0.092-0.15-0.092-0.265V6.026z"/>
				<path fill="#FFFFFF" d="M13.34,9.338c0.16,0,0.324-0.047,0.494-0.135c0.172-0.088,0.336-0.219,0.49-0.389v0.462h0.854V5.103
					h-0.854v3.168c-0.078,0.091-0.166,0.166-0.262,0.225c-0.098,0.059-0.176,0.088-0.238,0.088c-0.078,0-0.137-0.022-0.172-0.068
					c-0.035-0.044-0.057-0.115-0.057-0.214V5.103h-0.852V8.59c0,0.25,0.049,0.436,0.15,0.558C12.996,9.275,13.143,9.338,13.34,9.338
					z"/>
				<path fill="#FFFFFF" d="M14.943,13.471c-0.123,0-0.207,0.034-0.26,0.106c-0.055,0.066-0.078,0.181-0.078,0.34V14.3h0.668v-0.382
					c0-0.159-0.025-0.274-0.078-0.34C15.145,13.505,15.059,13.471,14.943,13.471z"/>
				<path fill="#FFFFFF" d="M15.688,10.592H6.189c-1.512,0-2.732,1.226-2.732,2.735v2.198c0,1.509,1.221,2.735,2.732,2.735h9.498
					c1.51,0,2.736-1.226,2.736-2.735v-2.198C18.424,11.818,17.197,10.592,15.688,10.592z M8.184,12.304H7.303v4.389H6.447v-4.389
					H5.566v-0.748h2.617V12.304z M10.68,16.693H9.922v-0.416c-0.141,0.152-0.283,0.271-0.436,0.35
					c-0.152,0.082-0.297,0.121-0.439,0.121c-0.176,0-0.309-0.055-0.396-0.17c-0.088-0.112-0.131-0.279-0.131-0.506v-3.168h0.756
					v2.905c0,0.091,0.018,0.155,0.045,0.196c0.033,0.04,0.086,0.059,0.156,0.059c0.055,0,0.127-0.025,0.211-0.078
					c0.088-0.055,0.164-0.123,0.234-0.205v-2.877h0.758V16.693z M13.426,15.911c0,0.267-0.059,0.471-0.178,0.616
					c-0.117,0.144-0.291,0.212-0.514,0.212c-0.148,0-0.281-0.025-0.395-0.082c-0.115-0.054-0.227-0.139-0.326-0.256v0.291H11.25
					v-5.137h0.764v1.655c0.104-0.114,0.213-0.203,0.326-0.264s0.23-0.089,0.348-0.089c0.242,0,0.426,0.08,0.549,0.24
					c0.129,0.163,0.189,0.399,0.189,0.709V15.911z M16.055,14.889h-1.449v0.714c0,0.198,0.023,0.337,0.072,0.416
					c0.053,0.076,0.137,0.115,0.258,0.115c0.127,0,0.213-0.033,0.264-0.099c0.049-0.065,0.074-0.211,0.074-0.432v-0.172h0.781v0.192
					c0,0.391-0.094,0.682-0.287,0.88c-0.189,0.196-0.473,0.292-0.85,0.292c-0.338,0-0.605-0.102-0.803-0.312
					c-0.191-0.206-0.291-0.493-0.291-0.86v-1.699c0-0.328,0.105-0.598,0.322-0.804c0.215-0.208,0.49-0.311,0.83-0.311
					c0.346,0,0.611,0.096,0.799,0.288c0.186,0.192,0.279,0.465,0.279,0.826V14.889z"/>
			</g>
		</g>
	</g>
</g>
</svg>
