<?xml version="1.0" encoding="utf-8"?>
<!-- Generator: Adobe Illustrator 16.0.0, SVG Export Plug-In . SVG Version: 6.00 Build 0)  -->
<!DOCTYPE svg PUBLIC "-//W3C//DTD SVG 1.1//EN" "http://www.w3.org/Graphics/SVG/1.1/DTD/svg11.dtd">
<svg version="1.1" id="Layer_1" xmlns="http://www.w3.org/2000/svg" xmlns:xlink="http://www.w3.org/1999/xlink" x="0px" y="0px"
	 width="21.88px" height="21.88px" viewBox="0 0 21.88 21.88" enable-background="new 0 0 21.88 21.88" xml:space="preserve">
<g>
	<g>
		<defs>
			<rect id="SVGID_23_" width="21.879" height="21.877"/>
		</defs>
		<clipPath id="SVGID_2_">
			<use xlink:href="#SVGID_23_"  overflow="visible"/>
		</clipPath>
		<rect clip-path="url(#SVGID_2_)" fill="#36609F" width="21.879" height="21.877"/>
		<polyline clip-path="url(#SVGID_2_)" fill="#325995" points="11.888,5.036 9.234,7.329 10.13,9.769 9.614,10.835 10.676,14.987 
			8.136,19.314 14.551,25.526 33.966,21.852 14.3,2.365 		"/>
		<path clip-path="url(#SVGID_2_)" fill="#FFFFFF" d="M14.037,10.835h-2.384c0,3.795,0,8.479,0,8.479H8.136c0,0,0-4.63,0-8.479
			H6.462V7.844h1.674V5.908c0-1.386,0.658-3.55,3.551-3.55L14.3,2.365v2.904c0,0-1.589,0-1.892,0c-0.314,0-0.755,0.158-0.755,0.819
			v1.756h2.688L14.037,10.835z"/>
	</g>
</g>
</svg>
