<?xml version="1.0" encoding="utf-8"?>
<!-- Generator: Adobe Illustrator 16.0.0, SVG Export Plug-In . SVG Version: 6.00 Build 0)  -->
<!DOCTYPE svg PUBLIC "-//W3C//DTD SVG 1.1//EN" "http://www.w3.org/Graphics/SVG/1.1/DTD/svg11.dtd">
<svg version="1.1" id="Layer_1" xmlns="http://www.w3.org/2000/svg" xmlns:xlink="http://www.w3.org/1999/xlink" x="0px" y="0px"
	 width="24.997px" height="25px" viewBox="0 0 24.997 25" enable-background="new 0 0 24.997 25" xml:space="preserve">
<g>
	<defs>
		<rect id="SVGID_11_" x="-33.334" y="-0.833" width="26.668" height="26.667"/>
	</defs>
	<clipPath id="SVGID_2_">
		<use xlink:href="#SVGID_11_"  overflow="visible"/>
	</clipPath>
	<g clip-path="url(#SVGID_2_)">
		<g>
			<path fill="#BE332D" d="M-22.242,5.914l-2.522,1.364l0.618,3.679l2.633,1.021v2.191l-1.607,0.019l-2.428,1.288l-0.525,3.085
				l8.631,8.347l23.257-0.632l-20.55-20.362l-0.315,0.56c0,0-0.019,1.01,0.037,1.158c0.057,0.149,0.635,0.469-0.075,0.469
				c-0.709,0-2.091-0.075-2.091-0.075l-0.394-0.206l-0.335-2.11"/>
		</g>
	</g>
</g>
<g>
	<defs>
		<rect id="SVGID_15_" x="-0.833" y="-0.833" width="26.664" height="26.667"/>
	</defs>
	<clipPath id="SVGID_4_">
		<use xlink:href="#SVGID_15_"  overflow="visible"/>
	</clipPath>
	<g clip-path="url(#SVGID_4_)">
		<g>
			<defs>
				<rect id="SVGID_17_" x="-0.833" y="-0.833" width="26.664" height="26.667"/>
			</defs>
			<clipPath id="SVGID_6_">
				<use xlink:href="#SVGID_17_"  overflow="visible"/>
			</clipPath>
			<rect x="-0.833" y="-0.833" clip-path="url(#SVGID_6_)" fill="#CB2027" width="26.664" height="26.667"/>
		</g>
	</g>
	<g clip-path="url(#SVGID_4_)">
		<path fill="#B91C21" d="M15.079,5.933l-3.806,0.102L9.911,6.795l-0.95,1.157L7.892,9.259l1.098,4.44l1.546,1.262l-0.922,5.019
			l9.667,9.153c5.22-1.121,11.191-3.173,12.128-8.458L17.251,6.632C17.251,6.632,15.288,5.962,15.079,5.933z"/>
		<path fill="#FFFFFF" d="M13.997,15.831c-0.926,0-1.8-0.499-2.099-1.069c0,0-0.499,1.979-0.603,2.36
			c-0.373,1.351-1.469,2.703-1.551,2.814c-0.062,0.075-0.193,0.051-0.207-0.051c-0.023-0.172-0.302-1.876,0.027-3.265
			c0.166-0.699,1.105-4.684,1.105-4.684s-0.275-0.548-0.275-1.358c0-1.275,0.739-2.224,1.66-2.224c0.782,0,1.157,0.584,1.157,1.287
			c0,0.788-0.501,1.963-0.762,3.053c-0.214,0.909,0.459,1.653,1.358,1.653c1.628,0,2.726-2.092,2.726-4.57
			c0-1.88-1.269-3.293-3.577-3.293c-2.605,0-4.229,1.945-4.229,4.119c0,0.747,0.22,1.276,0.565,1.683
			c0.157,0.188,0.182,0.264,0.123,0.479c-0.04,0.158-0.134,0.538-0.174,0.688c-0.056,0.22-0.235,0.296-0.431,0.216
			c-1.2-0.489-1.76-1.804-1.76-3.282c0-2.44,2.06-5.369,6.144-5.369c3.28,0,5.438,2.376,5.438,4.925
			C18.635,13.314,16.761,15.831,13.997,15.831z"/>
	</g>
</g>
</svg>
